<?xml version="1.0" encoding="UTF-8"?>
<svg class="menu__logo__svg" version="1.1" viewBox="0 0 138.47 60" xmlns="http://www.w3.org/2000/svg">
 <g class="menu__logo__svg__leaves" fill="#498d00" stroke="#498d00">
  <path class="menu__logo__svg__leaf-middle" d="m30.203 37.734c-12.949-6.7249-24.336-16.579-30.126-37.64 15.112 7.4698 25.112 20.059 30.126 37.64z" stroke-width=".099396"/>
  <path class="menu__logo__svg__leaf-bottom" d="m34.258 45.397c-10.2 1.5386-20.833.79218-33.018-8.1377 11.744-1.9972 22.744.75459 33.018 8.1377z" stroke-width=".068128"/>
  <path class="menu__logo__svg__leaf-top" d="m31.674 32.915c1.6137-10.918 5.9424-21.504 19.995-30.901-1.6038 12.647-8.3109 22.928-19.995 30.901z" stroke-width=".076441"/>
 </g>
 <g class="menu__logo__svg__letters" fill="#498d00">
  <path id="letter-o1o" d="m62.578 43.207q0 4.212-2.268 6.723-2.241 2.511-6.048 2.511-3.78 0-6.021-2.511t-2.241-6.723 2.241-6.696q2.241-2.511 6.021-2.511 3.807 0 6.048 2.511 2.268 2.484 2.268 6.696zm-3.618-4.941q-.675-1.188-1.89-1.89-1.215-.729-2.781-.729-2.781 0-4.428 1.917-1.647 1.89-1.647 4.833 0 3.213 1.35 5.697.675 1.242 1.863 1.971 1.215.729 2.808.729 2.916 0 4.482-1.944 1.593-1.971 1.593-5.076 0-3.132-1.35-5.508z"/>
  <path id="letter-p" d="m65.977 57.463.081-12.015q0-4.266-.513-5.697.486-.216 1.053-.216 1.161 0 1.161 1.35 2.052-1.539 4.158-1.539 2.133 0 3.429 1.458 1.323 1.431 1.323 4.374 0 4.212-2.565 6.21-1.35 1.053-3.105 1.053-1.728 0-3.159-.918 0 4.59.189 5.67.189 1.107.351 1.593-.486.216-1.188.216-.675 0-.945-.351t-.27-1.188zm1.917-7.344q1.242.81 3.24.81 1.215 0 2.079-.81 1.539-1.512 1.539-4.536 0-2.43-.945-3.564-.918-1.161-2.565-1.161t-3.402 1.485q.054 5.94.054 7.776z"/>
  <path id="letter-t" d="m80.492 41.074q-.081 0-2.511.189-.081-.243-.081-.756 0-.54.405-.702.405-.189 1.377-.189h.756q-.054-1.809-.162-3.024.405-.081.891-.081 1.296 0 1.296 1.026 0 .378-.108 2.106 3.429 0 4.536-.135.108.216.108.702 0 .459-.297.648-.27.189-1.053.216-.756.027-3.348.027-.054 2.916-.054 5.697 0 2.754.513 3.483.54.729 1.701.729 1.188 0 1.998-.81.486.513.486 1.026t-.702.864-1.701.351q-2.241 0-3.186-1.296-.918-1.296-.918-3.861.054-4.887.054-6.21z"/>
  <path id="letter-i" d="m89.309 50.713.054-4.779q0-3.861-.189-6.318.432-.081.918-.081 1.269 0 1.269 1.026 0 .135-.054 1.08-.162 2.889-.162 5.805 0 2.889.513 4.59-.486.216-1.161.216-.648 0-.918-.351t-.27-1.188zm2.295-14.04q0 .594-.432 1.026-.432.405-.999.405-.54 0-.945-.405t-.405-1.026.432-1.026q.432-.432.972-.432.567 0 .972.432.405.405.405 1.026z"/>
  <path id="letter-m" d="m110.02 50.875.162-6.993q0-1.539-.648-2.268-.621-.756-1.647-.756-1.566 0-3.348 1.431.054 3.672.054 5.859 0 2.16.162 3.996-.432.081-.918.081-1.215 0-1.215-1.026 0-.108.027-1.08.108-2.322.108-6.237 0-3.024-2.376-3.024-1.539 0-3.321 1.485.054 3.672.054 5.832 0 2.133.162 3.969-.432.081-.918.081-1.215 0-1.215-1.026 0-.108.054-1.971.081-1.89.081-3.753 0-4.428-.513-5.724.54-.216.972-.216 1.242 0 1.242 1.35.837-.675 1.998-1.107t2.241-.432q2.214 0 2.997 1.755.729-.729 2.025-1.242 1.323-.513 2.619-.513 1.323 0 2.241.918.918.891.918 2.889l-.081 4.806q0 2.484.459 4.077-.54.216-1.161.216-.594 0-.918-.297-.297-.324-.297-1.08z"/>
  <path id="letter-o2o" d="m126.99 45.907q0 2.97-1.62 4.752t-4.266 1.782q-2.619 0-4.239-1.782t-1.62-4.752 1.62-4.752q1.62-1.809 4.239-1.809 2.646 0 4.266 1.809 1.62 1.782 1.62 4.752zm-5.886 5.022q1.89 0 2.943-1.269t1.053-3.483-1.08-3.753q-1.08-1.566-2.943-1.566t-2.916 1.296q-1.026 1.269-1.026 3.483t1.053 3.753 2.916 1.539z"/>
  <path id="letter-s" d="m136.58 42.613q-.297-.783-1.215-1.269t-1.89-.486q-.945 0-1.62.513-.675.486-.675 1.35t.702 1.323q.729.459 1.755.702t2.052.567q1.026.297 1.728 1.107.729.81.729 2.106 0 1.917-1.377 2.916t-3.159.999q-1.755 0-3.051-.621-1.269-.621-1.269-1.539 0-.783 1.215-1.134.297.864 1.269 1.323.999.459 2.16.459t1.863-.513q.729-.513.729-1.458t-.729-1.377q-.702-.432-1.728-.648-1.026-.243-2.052-.54-1.026-.324-1.755-1.188-.702-.864-.702-2.349 0-1.512 1.377-2.511 1.404-.999 2.916-.999t2.727.567 1.215 1.485-1.215 1.215z"/>
 </g>
</svg>
