<?xml version="1.0" encoding="UTF-8"?>
<!DOCTYPE svg PUBLIC "-//W3C//DTD SVG 1.1//EN" "http://www.w3.org/Graphics/SVG/1.1/DTD/svg11.dtd">
<svg xmlns="http://www.w3.org/2000/svg" xml:space="preserve" version="1.1" style="shape-rendering:geometricPrecision; text-rendering:geometricPrecision; image-rendering:optimizeQuality; fill-rule:evenodd; clip-rule:evenodd"
viewBox="0 0 140 60"
 xmlns:xlink="http://www.w3.org/1999/xlink">
 <title>Optimos logo</title>
 <defs>
  <style type="text/css">
   <![CDATA[
    .fil0 {fill:#000}
    .fil1 {fill:#000}
   ]]>
  </style>
 </defs>
 <g id="Warstwa_x0020_1">
  <g id="_2644368433136">
   <path class="fil0" d="M34 41c0,-2 -4,-10 -5,-12 -1,-4 -3,-7 -6,-10 -2,-3 -5,-6 -8,-8 -2,-2 -8,-6 -10,-6 1,4 2,8 4,12 2,2 5,7 7,10 6,6 9,9 18,14l0 0zm1 -5c3,-1 11,-8 13,-12 2,-3 3,-6 5,-10 0,-1 1,-6 1,-7 -3,0 -10,8 -12,11 -7,11 -6,16 -7,18zm-29 4c1,1 5,4 6,4 6,3 9,4 16,5l3 0c2,0 6,0 6,-1 0,-1 -3,-4 -5,-4 -5,-3 -11,-5 -16,-5 -3,0 -8,0 -10,1l0 0z" stroke="#395" stroke-width="10px"/>
   <path class="fil1" d="M63 40c0,3 0,5 -2,7 -1,1 -3,2 -6,2 -2,0 -4,-1 -5,-2 -2,-2 -2,-4 -2,-7 0,-2 0,-5 2,-6 1,-2 3,-2 5,-2 3,0 5,0 6,2 2,1 2,4 2,6zm-3 -4c0,-1 -1,-2 -2,-2 -1,-1 -1,-1 -2,-1 -2,0 -3,1 -5,2 -1,1 -1,3 -1,5 0,2 0,3 1,5 1,1 1,1 2,2 1,0 2,1 2,1 2,0 4,-1 5,-2 1,-2 1,-3 1,-5 0,-2 0,-4 -1,-5zm7 18l0 -12c0,-2 0,-4 -1,-5 1,0 1,0 1,0 1,0 1,0 1,1 2,-1 3,-1 4,-1 2,0 3,0 4,1 0,1 1,2 1,4 0,3 -1,5 -3,6 -1,1 -2,1 -3,1 -1,0 -2,0 -3,-1 0,3 0,5 1,6 0,0 0,1 0,1 0,0 -1,0 -1,0 -1,0 -1,0 -1,0 0,0 0,-1 0,-1zm1 -7c1,0 2,1 4,1 0,0 1,-1 1,-1 1,-1 2,-3 2,-4 0,-2 0,-3 -1,-4 -1,-1 -1,-1 -2,-1 -1,0 -2,1 -4,2l0 7 0 0zm12 -9c0,0 0,0 -2,0 0,0 0,0 0,0 0,0 0,-1 0,-1 1,0 1,0 2,0l0 0c0,-1 0,-2 0,-3 0,0 1,0 1,0 1,0 1,0 1,1 0,0 0,1 0,2 2,0 4,0 4,0 1,0 1,0 1,1 0,0 -1,0 -1,0l-1 0c0,0 -1,0 -3,0l0 6c0,2 0,3 1,3 0,0 0,1 1,1 1,0 1,-1 2,-1 0,0 0,1 0,1 0,0 0,0 0,1 -1,0 -1,0 -2,0 -1,0 -2,0 -3,-1 0,-1 -1,-2 -1,-4l0 -6 0 0zm9 9l0 -4c0,-3 0,-5 0,-6l1 0c0,0 1,0 1,1l0 1c0,2 -1,3 -1,5 0,2 1,4 1,5 0,0 -1,0 -1,0 0,0 -1,0 -1,-1 0,0 0,0 0,-1l0 0zm2 -13c0,1 0,1 0,1 -1,0 -1,0 -1,0 -1,0 -1,0 -1,0 -1,0 -1,0 -1,-1 0,0 0,-1 1,-1 0,0 0,0 1,0 0,0 0,0 1,0 0,0 0,1 0,1zm17 14l1 -7c0,-1 -1,-2 -1,-2 -1,-1 -1,-1 -2,-1 -1,0 -2,1 -3,2l0 5c0,1 0,3 0,4 0,0 0,0 -1,0 0,0 -1,-1 -1,-1l0 -1 0 -6c0,-2 0,-3 -2,-3 -1,0 -2,1 -3,2 0,2 0,4 0,5l0 4c0,0 0,0 -1,0 0,0 -1,-1 -1,-1 0,0 0,-1 0,-2l0 -4c0,-2 0,-4 0,-5 0,0 0,0 1,0 1,0 1,0 1,1 0,0 1,-1 2,-1 1,0 1,0 2,0 1,0 2,0 3,1 0,0 1,0 2,-1 1,0 2,0 2,0 1,0 2,0 2,1 1,0 1,1 1,2l0 5c0,1 0,3 1,4 -1,0 -1,0 -2,0 0,0 0,0 0,-1 0,0 -1,0 -1,0l0 0zm16 -5c0,2 0,3 -1,4 -1,1 -3,2 -4,2 -2,0 -3,-1 -4,-2 -1,-1 -2,-2 -2,-4 0,-2 1,-3 2,-5 1,-1 2,-1 4,-1 1,0 3,0 4,1 1,2 1,3 1,5zm-5 5c1,0 2,-1 3,-2 0,0 1,-2 1,-3 0,-1 -1,-2 -1,-3 -1,-1 -2,-2 -3,-2 -1,0 -2,1 -3,1 -1,1 -1,2 -1,4 0,1 0,2 1,3 1,1 2,2 3,2zm14 -8c0,-1 0,-1 -1,-1 0,-1 -1,-1 -1,-1 -1,0 -2,0 -2,1 0,0 0,0 0,1 0,0 0,1 0,1 1,0 1,1 2,1 0,0 1,0 2,0 0,0 1,1 1,1 1,1 1,1 1,2 0,2 0,3 -1,3 -1,1 -2,1 -3,1 -1,0 -2,0 -3,-1 -1,0 -2,0 -2,-1 0,-1 1,-1 2,-1 0,0 1,1 1,1 1,1 1,1 2,1 1,0 1,-1 2,-1 0,0 0,-1 0,-1 0,-1 0,-1 0,-2 -1,0 -1,0 -2,0 0,0 -1,0 -2,-1 0,0 -1,0 -1,-1 -1,0 -1,-1 -1,-2 0,-1 0,-2 1,-2 1,-1 2,-1 3,-1 1,0 2,0 2,0 1,1 2,1 2,2 0,0 -1,1 -2,1z"/>
  </g>
 </g>
</svg>
