<?xml version="1.0" encoding="UTF-8"?>
<!DOCTYPE svg PUBLIC "-//W3C//DTD SVG 1.1//EN" "http://www.w3.org/Graphics/SVG/1.1/DTD/svg11.dtd">
<!-- Creator: CorelDRAW X7 -->
<svg xmlns="http://www.w3.org/2000/svg" xml:space="preserve" width="1040px" height="430px" version="1.1" style="shape-rendering:geometricPrecision; text-rendering:geometricPrecision; image-rendering:optimizeQuality; fill-rule:evenodd; clip-rule:evenodd"
viewBox="0 0 1040 430"
 xmlns:xlink="http://www.w3.org/1999/xlink">
 <defs>
  <style type="text/css">
   <![CDATA[
    .fil0 {fill:#498D00}
    .fil1 {fill:#498D00;fill-rule:nonzero}
   ]]>
  </style>
 </defs>
 <g id="Warstwa_x0020_1">
  <metadata id="CorelCorpID_0Corel-Layer"/>
  <g id="_1395489161152">
   <path class="fil0" d="M242 297c-1,-13 -27,-76 -34,-90 -15,-30 -29,-52 -48,-77 -18,-23 -39,-44 -62,-63 -15,-12 -60,-43 -78,-47 8,31 19,63 33,92 10,21 34,59 49,76 49,54 74,76 140,109l0 0z"/>
   <path class="fil0" d="M251 261c26,-6 80,-64 96,-90 17,-26 28,-48 38,-78 4,-10 12,-48 13,-58 -26,6 -78,62 -95,90 -48,80 -45,122 -52,136l0 0z"/>
   <path class="fil0" d="M29 293c2,6 38,28 46,32 45,22 72,30 123,36 1,0 2,0 3,0l18 0c20,0 45,-2 52,-6 -6,-12 -31,-30 -42,-36 -36,-18 -87,-34 -126,-33 -20,0 -57,-1 -74,7l0 0z"/>
  </g>
  <path class="fil1" d="M469 295c0,20 -5,36 -16,48 -11,13 -26,19 -44,19 -18,0 -33,-6 -44,-19 -11,-12 -16,-28 -16,-48 0,-21 5,-37 16,-50 11,-12 26,-18 44,-18 18,0 33,6 44,18 11,13 16,29 16,50zm-26 -36c-3,-6 -8,-11 -14,-14 -6,-4 -12,-6 -20,-6 -14,0 -24,5 -32,14 -8,10 -12,21 -12,36 0,15 3,29 10,41 3,6 8,11 13,15 6,3 13,5 21,5 14,0 25,-5 32,-15 8,-9 12,-21 12,-36 0,-16 -3,-29 -10,-40z"/>
  <path id="_1" class="fil1" d="M494 399l1 -88c0,-21 -2,-35 -4,-42 2,-1 5,-1 8,-1 5,0 8,3 8,9 10,-7 20,-10 30,-10 11,0 19,3 26,10 6,7 9,18 9,32 0,20 -6,36 -19,45 -6,5 -14,8 -22,8 -8,0 -16,-3 -23,-7 0,22 0,36 1,42 1,5 2,9 2,11 -2,1 -4,2 -8,2 -3,0 -6,-1 -7,-3 -1,-2 -2,-4 -2,-8l0 0zm14 -54c6,4 14,6 24,6 5,0 11,-2 15,-6 8,-8 11,-18 11,-33 0,-12 -2,-21 -7,-26 -4,-6 -10,-9 -18,-9 -8,0 -17,4 -25,11 0,29 0,48 0,57l0 0z"/>
  <path id="_2" class="fil1" d="M600 279c-1,0 -7,0 -19,1 0,-1 0,-3 0,-5 0,-3 1,-4 3,-6 2,0 5,-1 10,-1l5 0c0,-9 0,-16 -1,-22 2,0 5,-1 7,-1 6,0 9,3 9,8 0,2 0,7 -1,16 17,0 28,-1 34,-2 0,2 0,3 0,6 0,2 0,4 -2,4 -1,1 -4,2 -8,2 -3,0 -12,0 -24,0 0,14 0,28 0,42 0,13 1,22 4,25 2,3 6,5 12,5 6,0 10,-2 14,-6 3,3 4,6 4,8 0,2 -2,4 -5,6 -3,2 -8,3 -13,3 -10,0 -18,-3 -23,-9 -4,-7 -7,-16 -7,-29 1,-23 1,-39 1,-45l0 0z"/>
  <path id="_3" class="fil1" d="M664 349l1 -34c0,-20 -1,-35 -2,-47 2,0 4,0 7,0 6,0 9,2 9,7 0,1 0,4 0,8 -1,14 -2,28 -2,42 0,14 2,26 4,34 -2,1 -5,2 -8,2 -3,0 -6,-2 -7,-3 -1,-2 -2,-5 -2,-9l0 0zm17 -102c0,3 -1,5 -3,7 -2,2 -5,3 -7,3 -3,0 -6,-1 -8,-3 -1,-1 -2,-4 -2,-7 0,-3 1,-6 3,-8 2,-2 4,-3 7,-3 3,0 5,1 7,3 2,2 3,5 3,8z"/>
  <path id="_4" class="fil1" d="M815 351l2 -52c0,-7 -2,-12 -5,-16 -3,-4 -7,-6 -12,-6 -8,0 -16,4 -25,11 0,17 1,32 1,43 0,10 0,20 1,28 -2,1 -4,1 -7,1 -6,0 -9,-2 -9,-7 0,-1 0,-4 0,-8 1,-12 1,-26 1,-46 0,-14 -5,-22 -17,-22 -8,0 -16,4 -24,11 0,18 0,32 0,43 0,10 0,20 1,28 -2,1 -4,1 -7,1 -5,0 -8,-2 -8,-7 0,-1 0,-6 0,-15 0,-9 1,-18 1,-27 0,-22 -1,-36 -4,-42 3,-1 5,-1 7,-1 6,0 9,3 9,9 4,-3 9,-6 15,-8 6,-2 11,-2 16,-2 11,0 18,4 22,12 4,-4 8,-6 15,-9 6,-3 13,-3 19,-3 6,0 12,2 16,6 4,4 7,12 7,21l-1 35c0,12 2,22 4,30 -3,1 -6,2 -9,2 -3,0 -5,-1 -7,-3 -1,-1 -2,-4 -2,-7l0 0z"/>
  <path id="_5" class="fil1" d="M939 314c0,15 -4,26 -12,35 -8,8 -18,13 -31,13 -13,0 -23,-5 -31,-13 -8,-9 -12,-20 -12,-35 0,-14 4,-26 12,-35 8,-8 18,-12 31,-12 13,0 23,4 31,12 8,9 12,21 12,35zm-43 37c9,0 16,-3 21,-10 6,-6 8,-14 8,-25 0,-11 -2,-20 -8,-27 -5,-8 -12,-12 -21,-12 -9,0 -17,4 -21,10 -6,6 -8,14 -8,25 0,11 2,20 8,27 5,8 12,12 21,12z"/>
  <path id="_6" class="fil1" d="M1009 290c-2,-3 -4,-7 -9,-9 -5,-2 -9,-4 -14,-4 -5,0 -9,2 -12,4 -3,2 -5,6 -5,10 0,4 2,8 6,10 3,2 8,4 12,5 5,1 10,2 15,4 5,1 9,4 13,8 4,4 5,9 5,15 0,10 -3,17 -10,22 -7,4 -14,7 -23,7 -8,0 -16,-2 -22,-5 -6,-3 -10,-6 -10,-11 0,-4 4,-7 10,-8 1,4 4,7 9,9 5,3 10,4 15,4 6,0 11,-2 14,-4 4,-2 6,-6 6,-10 0,-5 -2,-8 -6,-10 -3,-3 -8,-4 -12,-6 -6,0 -10,-2 -16,-4 -4,-1 -9,-4 -12,-8 -4,-4 -6,-10 -6,-17 0,-7 4,-13 11,-19 7,-4 13,-6 21,-6 7,0 14,1 20,4 6,2 8,6 8,10 0,5 -2,8 -8,9l0 0z"/>
 </g>
</svg>
